<svg width="32" height="70" viewBox="0 0 32 70" fill="none" xmlns="http://www.w3.org/2000/svg">
<path d="M12.4248 44.999L9 64.5H14V69.999L12 69L10 70L8 69L7.33789 69.999L5.5 69L4 70L2.75 69.999L7.33789 44.999H12.4248ZM22.3379 21.5869L31.751 32.6748L27.9258 35.9121L22.3379 29.3125V45H24.8379V64H31.751V70L30 69L28.5 70L27 69L25.5 70L23.5 69L22.5 70H19.8379V45H17.3379V15H22.3379V21.5869ZM4.6748 35.8877L0 34.1123L7.22461 15H12.5752L4.6748 35.8877ZM17.3389 9.9502H12.3389V0H17.3389V9.9502Z" fill="black"/>
</svg>
