<?xml version="1.0" encoding="UTF-8"?>
<svg id="Layer_1" data-name="Layer 1" xmlns="http://www.w3.org/2000/svg" viewBox="0 0 189.55 64.54">
  <defs>
    <style>
      .cls-1 {
        fill: #231f20;
      }

      .cls-2 {
        fill: #fff;
      }
    </style>
  </defs>
  <path d="M57.97,31.85s-1.83-.93-1.86-.01.33,1.37-.05,2.13-1.39,2.53-.54,2.58,1.33.38,1.79,1.28,2.72,1.4,2.61.05-1.13-2,.07-2.78.03-4.62-.49-3.75-1.53.5-1.53.5Z"/>
  <g>
    <path class="cls-1" d="M42.17,21.19h5.04c3.66,0,5.46,2.16,4.68,5.88l-.09.39c-.57,2.52-1.44,3.78-3.57,4.41v.06c1.71.48,2.16,2.16,1.65,4.56l-.66,3.12c-.24,1.05-.39,1.89-.21,2.58h-3.45c-.06-.72-.15-1.11.24-2.88l.72-3.33c.45-2.07.06-2.67-1.83-2.67h-1.62l-1.86,8.88h-3.51l4.47-21ZM45.17,30.28c1.68,0,2.73-.75,3.09-2.55l.21-1.02c.36-1.65-.36-2.49-1.83-2.49h-1.62l-1.29,6.06h1.44Z"/>
    <path class="cls-1" d="M52.11,38.23c0-.63.12-1.23.18-1.56l1.11-5.31c.63-3.03,2.55-4.71,5.58-4.71,2.79,0,4.98,1.44,4.98,4.29,0,.54-.06,1.08-.18,1.53l-1.11,5.31c-.63,3-2.52,4.71-5.64,4.71s-4.92-1.62-4.92-4.26ZM59.9,37.99l1.26-5.82c.03-.18.08-.33.06-.6-.13-1.72-1.8-2.04-2.94-2.04-1.2,0-1.89.63-2.13,1.92l-1.26,5.85c-.03.18-.06.36-.06.6,0,1.08,1.2,1.71,2.37,1.71s2.43-.33,2.7-1.62Z"/>
    <path class="cls-1" d="M68.69,21.19h3.39l-4.47,21h-3.39l4.47-21Z"/>
    <path class="cls-1" d="M75.02,21.19h3.39l-4.47,21h-3.39l4.47-21Z"/>
    <path class="cls-1" d="M80.12,26.95h3.39l-3.24,15.24h-3.39l3.24-15.24ZM81.38,21.22h3.3l-.78,3.66h-3.3l.78-3.66Z"/>
    <path class="cls-1" d="M96.11,29.98c0,.51-.06,1.11-.21,1.74l-2.22,10.47h-3.39l2.16-10.17c.09-.36.15-.72.15-.99,0-1.02-.48-1.5-1.59-1.5-1.05,0-1.86.69-2.28,2.25l-2.22,10.41h-3.36l3.21-15.24h2.94l-.36,1.8c.84-1.35,2.1-2.1,3.63-2.1,2.28,0,3.54,1.11,3.54,3.33Z"/>
    <path class="cls-1" d="M109.88,26.95l-3.33,15.69c-.69,3.15-2.37,4.5-5.55,4.5-2.64,0-5.04-1.05-5.04-3.9,0-.12,0-.21.03-.33h3.18v.15c0,1.02.9,1.38,1.83,1.38,1.32,0,1.89-.54,2.22-2.04l.48-2.31c-.81.9-1.89,1.38-3.09,1.38-2.28,0-3.6-1.17-3.6-3.42,0-.51.06-1.08.21-1.68l1.17-5.43c.66-2.97,2.16-4.29,4.29-4.29s3.33,1.05,3.66,2.82l.6-2.52h2.94ZM104.48,36.46l.87-4.17c.03-.27.06-.54.06-.78,0-1.32-.72-1.98-1.89-1.98-1.02,0-1.59.72-1.89,2.07l-.96,4.56c-.09.33-.15.66-.15.9,0,1.02.51,1.56,1.68,1.56.99,0,1.83-.66,2.28-2.16Z"/>
    <path class="cls-1" d="M113.96,21.19h5.13c3.24,0,4.92,1.5,4.92,4.05,0,.45-.06.9-.15,1.41l-.12.6c-.48,2.4-1.44,3.36-3.51,4.02v.06c1.47.48,2.13,1.8,2.13,3.45,0,.45-.06.96-.18,1.47l-.21,1.02c-.78,3.6-2.46,4.92-6.18,4.92h-6.3l4.47-21ZM115.82,39.16c1.77,0,2.37-.63,2.73-2.34l.24-1.14c.09-.48.15-.87.15-1.23,0-1.14-.57-1.62-2.1-1.62h-1.86l-1.35,6.33h2.19ZM117.05,29.8c1.68,0,2.73-.57,3.12-2.34l.18-.78c.06-.3.12-.6.12-.81,0-1.14-.69-1.65-1.98-1.65h-1.68l-1.17,5.58h1.41Z"/>
    <path class="cls-1" d="M135.41,21.19l-.42,21h-3.36l.18-4.08h-4.62l-1.56,4.08h-3.33l8.49-21h4.62ZM131.93,35.14l.42-10.41-4.02,10.41h3.6Z"/>
  </g>
  <circle class="cls-2" cx="57.95" cy="34.45" r="1.44"/>
</svg>